<svg width="879" height="1035" viewBox="0 0 879 1035" fill="none" xmlns="http://www.w3.org/2000/svg">
<g clip-path="url(#clip0_1_194)">
<path d="M217.857 531.914C217.52 530.903 217.183 529.556 217.014 528.377C215.16 512.457 213.39 494.854 211.789 479.692C209.598 457.456 207.155 431.766 205.385 413.742C204.205 401.528 200.329 389.905 194.683 381.229C190.891 375.67 186.677 371.543 181.958 369.522C178.166 368.005 173.532 367.837 168.728 369.69C162.155 372.217 154.824 377.523 146.65 386.788C139.403 395.043 133.757 406.077 129.038 417.784C122.381 434.883 118.42 453.076 116.819 465.542C116.651 466.384 116.651 467.058 116.314 467.732L70.9774 724.966C70.3033 728.335 68.955 731.367 66.9326 733.726C51.6801 753.351 42.0735 770.197 39.2927 783.842C37.2702 793.865 39.2927 801.951 45.9498 808.268L212.801 975.04C223.418 985.232 235.721 991.633 250.468 994.329C266.564 997.361 285.355 995.676 306.928 989.78C307.265 989.78 307.771 989.612 308.108 989.612C316.282 987.422 326.984 984.811 337.265 982.2C382.011 971.334 421.027 961.732 457.178 928.883L503.694 880.367C504.115 879.525 504.874 878.851 505.548 878.177C506.222 877.504 510.772 872.955 516.924 867.144C548.777 836.063 588.13 797.655 564.198 764.048L545.575 745.433C536.558 754.193 526.952 762.7 517.767 770.87C509.34 778.282 501.503 785.105 494.34 792.349C486.672 800.013 474.284 800.013 466.532 792.349C458.863 784.6 458.863 772.302 466.532 764.553C473.779 757.31 482.627 749.476 491.812 741.306C523.328 713.511 559.479 681.757 540.098 653.877L521.643 635.431C520.632 634.42 519.789 633.241 519.031 632.062C508.413 642.927 496.784 653.287 485.323 663.395C476.897 670.807 469.06 677.629 461.897 684.873C454.229 692.538 441.841 692.538 434.089 684.873C426.336 677.208 426.42 664.827 434.089 657.078C441.336 649.834 450.184 642.001 459.369 633.831C490.885 606.035 527.036 574.281 507.655 546.401L489.2 527.955C487.852 526.608 486.84 525.344 485.998 523.744L431.898 577.819C424.229 585.483 411.842 585.483 404.089 577.819C396.336 570.154 396.421 557.772 404.089 550.023L549.199 404.729C573.468 380.471 579.029 355.203 572.625 336.083C570.266 329.092 566.389 322.859 561.586 318.058C556.783 313.257 550.547 309.382 543.553 307.024C524.677 300.791 499.481 306.519 474.537 331.45L220.048 585.82C212.379 593.485 199.992 593.485 192.239 585.82C184.487 578.156 184.571 565.774 192.239 558.025L218.109 532.167L217.857 531.914ZM513.048 496.707C514.48 497.549 515.913 498.56 517.261 499.907L536.558 519.196C537.57 520.206 538.581 521.554 539.424 522.733C561.08 552.382 557.71 578.829 542.963 602.919C545.575 603.929 548.187 605.361 550.21 607.467L569.507 626.755C570.518 627.766 571.53 629.114 572.372 630.293C595.63 662.3 589.816 690.264 572.372 715.701C573.215 716.122 573.805 716.88 574.732 717.722L594.029 737.01C595.04 738.021 596.052 739.369 596.894 740.548C641.641 801.698 588.299 853.583 545.491 895.444L534.452 906.478L486.672 956.594L485.155 958.026C441.42 997.698 398.106 1008.31 347.967 1020.52C339.54 1022.55 331.113 1024.74 319.315 1027.77C318.978 1027.77 318.81 1027.94 318.473 1027.94C291.338 1035.35 266.732 1037.12 244.654 1033.16C222.239 1029.11 202.773 1019.09 186.509 1003.17L19.4897 836.316C2.63606 820.06 -3.17844 800.013 1.62484 776.177C5.24837 757.141 16.3717 736 33.731 713.258L78.393 461.078V460.067C80.4155 445.664 84.966 424.354 92.8029 403.803C98.7859 388.389 106.876 373.312 117.409 361.099C130.134 346.696 142.69 337.852 155.077 333.135C170.329 327.323 184.908 328.081 197.801 333.64C209.851 338.694 220.048 347.875 227.8 359.583C237.238 373.649 243.39 391.589 245.075 410.288C246.424 425.702 249.12 451.139 251.648 476.071L253.671 496.875L446.644 303.823C483.722 266.763 523.834 259.435 555.94 269.963C568.833 274.175 580.209 281.166 589.647 290.599C599.085 300.033 606.08 311.404 610.293 324.291C620.911 356.298 613.664 396.98 577.26 433.367L513.3 497.296L513.048 496.707Z" fill="#AB63F8"/>
<path d="M371.646 237.283C381.758 226.586 381.421 209.487 370.466 199.211L291.254 124.922C280.552 114.814 263.446 115.151 253.165 126.101C243.137 136.798 243.474 153.812 254.345 164.172L333.557 238.462C344.259 248.569 361.365 248.232 371.646 237.283Z" fill="#FEBE29"/>
<path d="M510.918 162.535C525.632 162.122 537.485 149.793 537.004 134.781L533.524 26.2388C533.103 11.5243 520.769 -0.333554 505.757 0.139504C491.102 0.612645 479.31 12.8818 479.671 27.8942L483.151 136.436C483.572 151.151 495.906 163.008 510.918 162.535Z" fill="#FEBE29"/>
<path d="M716.946 347.918C717.36 362.632 729.689 374.484 744.701 374.004L853.243 370.524C867.958 370.103 879.815 357.769 879.342 342.757C878.869 328.102 866.6 316.31 851.588 316.671L743.046 320.151C728.331 320.572 716.473 332.906 716.946 347.918Z" fill="#FEBE29"/>
<path d="M646.321 495.253C636.208 505.95 636.545 523.048 647.5 533.324L726.712 607.614C737.414 617.721 754.521 617.384 764.801 606.434C774.829 595.737 774.492 578.723 763.622 568.363L684.41 494.074C673.708 483.966 656.601 484.303 646.321 495.253Z" fill="#FEBE29"/>
<path d="M663.496 205.738C674.193 215.85 691.292 215.513 701.568 204.558L775.857 125.347C785.965 114.644 785.628 97.538 774.678 87.2573C763.981 77.2294 746.967 77.5665 736.607 88.4371L662.317 167.649C652.21 178.351 652.547 195.458 663.496 205.738Z" fill="#FEBE29"/>
</g>
<defs>
<clipPath id="clip0_1_194">
<rect width="879" height="1035" fill="white"/>
</clipPath>
</defs>
</svg>
