<svg width="1000" height="1000" viewBox="0 0 1000 1000" fill="none" xmlns="http://www.w3.org/2000/svg">
<g clip-path="url(#clip0_401_2)">
<rect width="673.163" height="277.903" rx="10" transform="matrix(0.242381 0.970181 0.970181 -0.242381 284.583 207.662)" fill="#843CD4"/>
<rect x="159.447" y="369.014" width="682.803" height="266.037" rx="10" transform="rotate(-0.305926 159.447 369.014)" fill="#E7A104"/>
<path d="M437.007 7.98492C440.332 3.57498 446.602 2.69528 451.012 6.02007L921.663 360.859C965.762 394.107 974.559 456.809 941.311 500.909L845.724 627.694C842.399 632.104 836.129 632.984 831.719 629.659L289.203 220.64C284.793 217.315 283.914 211.045 287.238 206.635L437.007 7.98492Z" fill="#AB63F8"/>
<path d="M564.505 992.015C561.18 996.425 554.91 997.305 550.5 993.98L79.8488 639.141C35.7494 605.893 26.9525 543.191 60.2004 499.091L155.788 372.306C159.113 367.896 165.383 367.016 169.793 370.341L712.308 779.36C716.718 782.685 717.598 788.955 714.273 793.365L564.505 992.015Z" fill="#FEBE29"/>
</g>
<defs>
<clipPath id="clip0_401_2">
<rect width="1000" height="1000" fill="white"/>
</clipPath>
</defs>
</svg>
