<svg width="800" height="800" viewBox="0 0 800 800" fill="none" xmlns="http://www.w3.org/2000/svg">
<g clip-path="url(#clip0_1_204)">
<path d="M663.613 -4.53063e-07C641.852 -0.026563 624.22 17.5516 624.194 39.3125C624.169 61.0469 641.772 78.6766 663.506 78.7031C685.241 78.7297 702.886 61.125 702.911 39.3766C702.925 17.6438 685.347 0.014062 663.613 -4.53063e-07Z" fill="#FEBE29"/>
<path d="M670.449 187.55C670.461 174.748 660.114 164.389 647.341 164.375C634.541 164.362 624.169 174.722 624.155 187.509C624.155 200.295 634.514 210.669 647.289 210.669C660.089 210.697 670.449 200.325 670.449 187.55Z" fill="#FEBE29"/>
<path d="M720.689 102.038C705.406 101.997 692.977 114.363 692.977 129.644C692.948 144.952 705.341 157.317 720.636 157.356C735.892 157.356 748.322 145.003 748.322 129.709C748.347 114.441 735.969 102.038 720.689 102.038Z" fill="#FEBE29"/>
<path d="M122.247 617.708C91.447 648.509 91.447 698.617 122.247 729.417C153.049 760.219 203.169 760.219 233.97 729.417L462.774 500.614H239.353L122.247 617.708Z" fill="#FEBE29"/>
<path d="M519.334 189.345C500.688 170.684 470.334 170.684 451.688 189.345C439.625 201.408 435.377 218.352 438.914 233.87L435.852 236.945L88.675 584.123C39.3469 633.439 39.3469 713.687 88.675 763.003C137.978 812.333 218.241 812.333 267.544 763.003L614.733 415.827L617.795 412.764C633.314 416.302 650.272 412.052 662.334 399.991C680.981 381.33 680.995 350.991 662.334 332.344L519.334 189.345ZM596.613 401.811L506.809 491.627L251.495 746.942C210.955 787.469 145.261 787.469 104.722 746.942C64.2094 706.416 64.2094 640.709 104.722 600.181L358.783 346.122L449.866 255.064L454.22 250.683C454.827 251.342 455.436 251.977 456.067 252.608L599.067 395.608C599.688 396.241 600.333 396.848 600.981 397.455L596.613 401.811ZM646.259 383.93C639.489 390.7 629.816 392.784 621.238 390.212L614.731 383.706L467.972 236.947L461.466 230.441C458.878 221.862 460.978 212.177 467.747 205.406C477.553 195.602 493.467 195.602 503.272 205.406L646.258 348.391C656.077 358.209 656.077 374.112 646.259 383.93Z" fill="#AB63F8"/>
</g>
<defs>
<clipPath id="clip0_1_204">
<rect width="800" height="800" fill="white"/>
</clipPath>
</defs>
</svg>
