<svg width="1000" height="1000" viewBox="0 0 1000 1000" fill="none" xmlns="http://www.w3.org/2000/svg">
<rect width="1000" height="1000" rx="54" fill="#AB63F8"/>
<path d="M229 505.927V547.763H362.552V927.618H457.323V547.763H590.875V506.697C590.875 483.598 590.875 464.862 589.848 464.348C589.848 463.578 508.432 463.322 409.552 463.322L229.771 464.092V506.184L229 505.927ZM829.215 463.065C855.411 469.225 875.444 481.031 893.422 499.767C902.925 510.034 917.051 528 918.078 532.62C918.078 534.16 873.646 564.189 846.679 580.872C845.652 581.642 841.542 577.279 837.433 570.605C824.078 551.613 810.466 543.399 789.149 541.86C758.329 539.806 737.783 555.976 737.783 582.925C737.783 591.138 739.324 595.758 742.406 602.431C749.34 616.547 762.182 625.017 801.99 642.47C875.444 674.039 907.291 694.828 926.554 724.601C948.384 757.967 953.264 810.325 938.625 849.594C922.187 892.456 882.122 921.458 824.848 930.955C806.87 934.035 765.777 933.522 746.515 930.185C705.422 922.485 666.127 901.952 641.985 875.517C632.482 865.25 614.247 837.788 615.274 835.991L625.034 829.831L663.558 807.502L692.58 790.562L699.258 799.545C707.733 812.892 726.739 830.858 737.783 837.018C771.171 854.214 815.859 851.904 837.947 831.884C847.45 823.158 851.559 813.918 851.559 801.085C851.559 789.279 849.761 783.889 843.854 774.906C835.635 763.613 819.198 754.373 772.969 733.841C719.804 711.255 697.203 696.882 676.143 674.809C664.072 661.463 653.028 640.673 647.892 623.477C644.039 608.591 642.755 572.145 646.351 557.516C657.394 506.184 696.176 470.252 751.652 459.985C769.63 456.392 812.007 457.932 829.728 462.552L829.215 463.065Z" fill="#FEBE29"/>
</svg>
